# xmcd
#
# Track frame offsets: 
#        150
#        22103
#        46358
#        75821
#        97396
#        120260
#        143971
#        171220
#        192962
#        207633
#        224602
#        231044
#        241922
#        256428
#
# Disc length: 3644 seconds
#
# Revision: 0
# Processed by: cddbd v1.5.1PL2 Copyright (c) Steve Scherf et al.
# Submitted via: ExactAudioCopy v0.95b4
#
DISCID=c90e3a0e
DTITLE=Boyz II Men - Winter Reflections
DYEAR=1900
DGENRE=R&B
TTITLE0=I've been searchin'
TTITLE1=Will
TTITLE2=Flowers bloom
TTITLE3=Snow white
TTITLE4=Song for you
TTITLE5=Will (acappella)
TTITLE6=This christmas
TTITLE7=Little drummer boy
TTITLE8=Merry christmas darling
TTITLE9=Oh, come oh, come Emmanuel
TTITLE10=God rest ye merry gentleman
TTITLE11=What child is this
TTITLE12=The christmas song
TTITLE13=The christmas song (acappella)
EXTD=
EXTT0=
EXTT1=
EXTT2=
EXTT3=
EXTT4=
EXTT5=
EXTT6=
EXTT7=
EXTT8=
EXTT9=
EXTT10=
EXTT11=
EXTT12=
EXTT13=
PLAYORDER=
